<?xml version="1.0" standalone="no"?>
<!DOCTYPE svg PUBLIC "-//W3C//DTD SVG 20010904//EN"
 "http://www.w3.org/TR/2001/REC-SVG-20010904/DTD/svg10.dtd">
<svg version="1.0" xmlns="http://www.w3.org/2000/svg"
 width="300.000000pt" height="300.000000pt" viewBox="0 0 300.000000 300.000000"
 preserveAspectRatio="xMidYMid meet">

<g transform="translate(0.000000,300.000000) scale(0.100000,-0.100000)"
fill="#000000" stroke="none">
<path d="M540 2055 c0 -10 11 -15 35 -15 47 0 107 -25 125 -53 11 -18 15 -101
18 -450 4 -386 3 -432 -13 -473 -19 -50 -54 -74 -120 -83 -26 -4 -40 -11 -40
-21 0 -18 46 -22 149 -13 l69 6 -4 495 c-3 392 -1 496 9 499 10 4 240 -449
450 -887 70 -146 45 -173 242 256 263 575 287 624 304 624 8 0 17 -4 20 -9 3
-5 8 -226 11 -492 5 -361 9 -485 18 -491 7 -4 85 -8 175 -8 155 0 162 1 162
20 0 17 -7 20 -40 20 -57 0 -109 28 -131 72 -18 35 -19 64 -19 452 l0 415 24
28 24 28 154 3 c203 4 216 -3 278 -148 l19 -45 0 143 1 142 -630 -2 -630 -3
-4 -132 c-3 -73 -1 -135 3 -137 4 -3 20 24 35 59 16 37 43 78 62 95 l35 30
190 0 190 0 -7 -22 c-3 -12 -35 -83 -69 -158 -35 -74 -101 -218 -148 -320
-109 -238 -130 -280 -137 -280 -4 0 -103 196 -220 435 l-214 435 -188 0 c-160
0 -188 -2 -188 -15z"/>
</g>
</svg>
